<?xml version="1.0" standalone="no"?>
<!DOCTYPE svg PUBLIC "-//W3C//DTD SVG 20010904//EN"
 "http://www.w3.org/TR/2001/REC-SVG-20010904/DTD/svg10.dtd">
<svg version="1.0" xmlns="http://www.w3.org/2000/svg"
 width="53.000000pt" height="36.000000pt" viewBox="0 0 53.000000 36.000000"
 preserveAspectRatio="xMidYMid meet">

<g transform="translate(0.000000,36.000000) scale(0.100000,-0.100000)"
fill="#000000" stroke="none">
<path d="M233 264 c-31 -33 -40 -68 -34 -120 1 -6 -6 -17 -14 -24 -29 -24 -14
-30 85 -30 99 0 114 6 85 30 -10 8 -15 30 -15 61 0 40 -5 53 -34 83 -18 20
-35 36 -37 36 -2 0 -19 -17 -36 -36z"/>
<path d="M250 70 c0 -5 9 -10 20 -10 11 0 20 5 20 10 0 6 -9 10 -20 10 -11 0
-20 -4 -20 -10z"/>
</g>
</svg>
